5<svg width="72" height="130" viewBox="0 0 72 130" fill="none" xmlns="http://www.w3.org/2000/svg">
<g clip-path="url(#clip0_3_11762)">
<path d="M56.1379 56.7304C57.7002 57.3024 59.576 56.0999 60.3282 54.0447C61.08 51.9895 60.4231 49.8603 58.861 49.2886C57.2984 48.7174 55.4228 49.9195 54.6706 51.9747C53.9188 54.0299 54.5757 56.1592 56.1379 56.7304Z" fill="#D4D4D4" fill-opacity="0.42"/>
<path d="M50.2014 60.008C51.8356 59.8663 53.0094 58.0092 52.8236 55.8588C52.6375 53.709 51.1617 52.081 49.5274 52.2219C47.8933 52.364 46.7197 54.2214 46.9056 56.3715C47.0918 58.5212 48.5673 60.1493 50.2014 60.008Z" fill="#D4D4D4" fill-opacity="0.42"/>
<path d="M62.9284 59.9345C64.3628 60.7776 66.4238 59.9309 67.5322 58.0443C68.6407 56.1564 68.3765 53.9442 66.9419 53.1012C65.5076 52.2589 63.4462 53.106 62.3379 54.9927C61.2296 56.8802 61.4941 59.0923 62.9284 59.9345Z" fill="#D4D4D4" fill-opacity="0.42"/>
<path d="M70.6108 62.1721C69.6808 60.821 67.4861 60.7166 65.7083 61.9395C63.9302 63.1633 63.243 65.2501 64.1727 66.6016C65.1024 67.9526 67.2973 68.0571 69.0752 66.8337C70.8528 65.6104 71.5403 63.5236 70.6108 62.1721Z" fill="#D4D4D4" fill-opacity="0.42"/>
<path d="M61.0617 62.4259C60.8843 61.1986 60.1319 60.0793 58.9294 59.5116C57.7271 58.9444 56.3846 59.0753 55.3248 59.7182C54.1533 60.4291 53.4039 61.3578 52.3949 61.7638C51.3861 62.1697 48.5603 60.9608 46.801 64.1556C45.5584 66.4122 46.699 69.2649 49.0285 70.3641C50.799 71.1995 52.2004 71.1063 53.2291 71.5914C54.2577 72.0766 55.0766 73.2179 56.847 74.0533C59.1764 75.1526 62.1034 74.2199 63.0554 71.826C64.4033 68.4369 61.6733 67.0242 61.3451 65.9874C61.0172 64.9507 61.2578 63.7818 61.0617 62.4259Z" fill="#D4D4D4" fill-opacity="0.42"/>
</g>
<g clip-path="url(#clip1_3_11762)">
<path d="M27.6013 112.218C29.1635 112.79 31.0394 111.588 31.7916 109.533C32.5433 107.477 31.8865 105.348 30.3244 104.776C28.7618 104.205 26.8862 105.407 26.134 107.462C25.3822 109.518 26.0391 111.647 27.6013 112.218Z" fill="white"/>
<path d="M21.6648 115.496C23.299 115.354 24.4727 113.497 24.287 111.347C24.1009 109.197 22.6251 107.569 20.9908 107.71C19.3567 107.852 18.183 109.709 18.369 111.859C18.5552 114.009 20.0307 115.637 21.6648 115.496Z" fill="white"/>
<path d="M34.3918 115.422C35.8262 116.265 37.8871 115.419 38.9956 113.532C40.1041 111.644 39.8399 109.432 38.4053 108.589C36.971 107.747 34.9096 108.594 33.8013 110.48C32.6929 112.368 32.9575 114.58 34.3918 115.422Z" fill="white"/>
<path d="M42.0742 117.66C41.1442 116.309 38.9495 116.204 37.1717 117.427C35.3935 118.651 34.7064 120.738 35.6361 122.089C36.5658 123.44 38.7607 123.545 40.5385 122.322C42.3161 121.098 43.0037 119.011 42.0742 117.66Z" fill="white"/>
<path d="M32.525 117.914C32.3477 116.686 31.5953 115.567 30.3928 114.999C29.1905 114.432 27.848 114.563 26.7882 115.206C25.6167 115.917 24.8673 116.846 23.8583 117.252C22.8495 117.657 20.0237 116.449 18.2643 119.643C17.0218 121.9 18.1624 124.753 20.4919 125.852C22.2624 126.687 23.6637 126.594 24.6925 127.079C25.7211 127.564 26.5399 128.706 28.3103 129.541C30.6397 130.64 33.5668 129.708 34.5188 127.314C35.8666 123.925 33.1367 122.512 32.8085 121.475C32.4806 120.439 32.7212 119.27 32.525 117.914Z" fill="white"/>
</g>
<g clip-path="url(#clip2_3_11762)">
<path d="M10.1623 70.9985C11.7246 71.5705 13.6004 70.368 14.3526 68.3128C15.1044 66.2576 14.4475 64.1283 12.8855 63.5567C11.3228 62.9854 9.4472 64.1876 8.69504 66.2428C7.94323 68.298 8.60011 70.4272 10.1623 70.9985Z" fill="white"/>
<path d="M4.22579 74.276C5.86005 74.1343 7.03377 72.2773 6.84804 70.1268C6.6619 67.9771 5.18613 66.349 3.55186 66.4899C1.91775 66.6321 0.744079 68.4895 0.930013 70.6396C1.11619 72.7893 2.59172 74.4173 4.22579 74.276Z" fill="white"/>
<path d="M16.9528 74.2026C18.3872 75.0457 20.4482 74.199 21.5566 72.3124C22.6651 70.4245 22.4009 68.2123 20.9663 67.3693C19.532 66.527 17.4706 67.3741 16.3623 69.2607C15.254 71.1482 15.5185 73.3604 16.9528 74.2026Z" fill="white"/>
<path d="M24.6352 76.4402C23.7052 75.0891 21.5105 74.9847 19.7328 76.2076C17.9546 77.4314 17.2674 79.5182 18.1971 80.8696C19.1268 82.2207 21.3217 82.3252 23.0996 81.1018C24.8772 79.8784 25.5647 77.7916 24.6352 76.4402Z" fill="white"/>
<path d="M15.0861 76.694C14.9087 75.4667 14.1564 74.3474 12.9538 73.7797C11.7515 73.2124 10.4091 73.3434 9.34919 73.9862C8.1777 74.6972 7.42832 75.6259 6.41933 76.0319C5.41049 76.4378 2.58473 75.2288 0.825367 78.4237C-0.417213 80.6803 0.723457 83.5329 3.0529 84.6321C4.82346 85.4676 6.22478 85.3743 7.25353 85.8595C8.28214 86.3447 9.10098 87.486 10.8714 88.3214C13.2008 89.4206 16.1279 88.4879 17.0798 86.0941C18.4277 82.705 15.6977 81.2923 15.3695 80.2555C15.0416 79.2188 15.2822 78.0498 15.0861 76.694Z" fill="white"/>
</g>
<g clip-path="url(#clip3_3_11762)">
<path d="M49.0036 7.58391C50.5659 8.15593 52.4417 6.95343 53.1939 4.89826C53.9457 2.84303 53.2888 0.713781 51.7268 0.142108C50.1641 -0.429119 48.2885 0.773034 47.5363 2.82821C46.7845 4.88344 47.4414 7.01269 49.0036 7.58391Z" fill="#D4D4D4" fill-opacity="0.42"/>
<path d="M43.0671 10.8615C44.7014 10.7198 45.8751 8.86272 45.6893 6.71227C45.5032 4.56256 44.0274 2.93449 42.3932 3.07539C40.7591 3.21753 39.5854 5.07493 39.7713 7.22504C39.9575 9.37474 41.433 11.0028 43.0671 10.8615Z" fill="#D4D4D4" fill-opacity="0.42"/>
<path d="M55.7941 10.7881C57.2285 11.6311 59.2895 10.7844 60.398 8.8978C61.5064 7.00993 61.2422 4.79775 59.8076 3.95473C58.3733 3.11245 56.3119 3.95954 55.2036 5.84617C54.0953 7.7337 54.3598 9.94583 55.7941 10.7881Z" fill="#D4D4D4" fill-opacity="0.42"/>
<path d="M63.4765 13.0256C62.5465 11.6745 60.3519 11.5701 58.5741 12.7931C56.7959 14.0168 56.1087 16.1036 57.0384 17.4551C57.9682 18.8061 60.163 18.9106 61.9409 17.6872C63.7185 16.4639 64.406 14.3771 63.4765 13.0256Z" fill="#D4D4D4" fill-opacity="0.42"/>
<path d="M53.9274 13.2794C53.75 12.0521 52.9977 10.9328 51.7951 10.3651C50.5928 9.79788 49.2504 9.92883 48.1905 10.5717C47.019 11.2826 46.2696 12.2114 45.2606 12.6173C44.2518 13.0232 41.426 11.8143 39.6667 15.0091C38.4241 17.2657 39.5648 20.1184 41.8942 21.2176C43.6648 22.0531 45.0661 21.9598 46.0948 22.4449C47.1234 22.9301 47.9423 24.0714 49.7127 24.9068C52.0421 26.0061 54.9692 25.0734 55.9211 22.6795C57.269 19.2905 54.539 17.8778 54.2108 16.8409C53.8829 15.8042 54.1235 14.6353 53.9274 13.2794Z" fill="#D4D4D4" fill-opacity="0.42"/>
</g>
<defs>
<clipPath id="clip0_3_11762">
<rect width="25.3659" height="25.3659" fill="white" transform="translate(45.9756 49.1465)"/>
</clipPath>
<clipPath id="clip1_3_11762">
<rect width="25.3659" height="25.3659" fill="white" transform="translate(17.439 104.634)"/>
</clipPath>
<clipPath id="clip2_3_11762">
<rect width="25.3659" height="25.3659" fill="white" transform="translate(0 63.4146)"/>
</clipPath>
<clipPath id="clip3_3_11762">
<rect width="25.3659" height="25.3659" fill="white" transform="translate(38.8413)"/>
</clipPath>
</defs>
</svg>
