<svg width="123" height="50" viewBox="0 0 123 50" fill="none" xmlns="http://www.w3.org/2000/svg">
<path d="M0 27.9355V1.57419H9.5432C11.7334 1.57419 13.4935 1.84516 14.8233 2.3871C16.153 2.92903 17.1178 3.74194 17.7175 4.82581C18.3433 5.88387 18.6562 7.2129 18.6562 8.8129C18.6562 10.0774 18.3694 11.2 17.7957 12.1806C17.2482 13.1355 16.492 13.8839 15.5273 14.4258C14.5625 14.9677 13.4674 15.2387 12.2419 15.2387L12.3592 14C13.8976 14 15.1753 14.2839 16.1922 14.8516C17.2091 15.4194 17.9782 16.1935 18.4997 17.1742C19.0212 18.1548 19.282 19.2645 19.282 20.5032C19.282 22.9806 18.5128 24.8387 16.9744 26.0774C15.4621 27.3161 13.2197 27.9355 10.2472 27.9355H0ZM5.71028 4.47742V24.7613L3.67648 22.5161H10.169C11.1859 22.5161 11.9812 22.271 12.5548 21.7806C13.1545 21.2903 13.4543 20.6194 13.4543 19.7677C13.4543 18.8387 13.1675 18.1419 12.5939 17.6774C12.0463 17.2129 11.2641 16.9806 10.2472 16.9806H3.67648V12.1032H9.66054C10.7035 12.1032 11.4857 11.8968 12.0072 11.4839C12.5287 11.071 12.7895 10.4258 12.7895 9.54839C12.7895 8.74839 12.5157 8.12903 11.9681 7.69032C11.4466 7.22581 10.6774 6.99355 9.66054 6.99355H3.83293L5.71028 4.47742Z" fill="white"/>
<path d="M28.7799 27.9355H23.0697V1.57419H28.7799V27.9355Z" fill="white"/>
<path d="M45.4659 28.4C42.7802 28.4 40.4075 27.8194 38.3476 26.6581C36.3138 25.4968 34.7363 23.9097 33.6151 21.8968C32.4939 19.8581 31.9333 17.5484 31.9333 14.9677C31.9333 12.929 32.2592 11.071 32.9111 9.39355C33.589 7.69032 34.5277 6.23226 35.7271 5.01936C36.9265 3.78065 38.3476 2.82581 39.9903 2.15484C41.659 1.48387 43.4842 1.14839 45.4659 1.14839C48.5166 1.14839 51.0327 1.79355 53.0144 3.08387C55.0221 4.34839 56.5735 6.16774 57.6687 8.54193L52.4668 10.5935C51.6064 9.2 50.6025 8.19355 49.4552 7.57419C48.308 6.92903 46.9782 6.60645 45.4659 6.60645C43.9796 6.60645 42.6498 6.95484 41.4765 7.65161C40.3292 8.32258 39.4166 9.27742 38.7387 10.5161C38.0868 11.7548 37.7609 13.2387 37.7609 14.9677C37.7609 16.5677 38.0868 17.9871 38.7387 19.2258C39.4166 20.4387 40.3292 21.3935 41.4765 22.0903C42.6498 22.7613 43.9796 23.0968 45.4659 23.0968C46.8478 23.0968 48.0733 22.8387 49.1424 22.3226C50.2114 21.8065 51.0719 21.071 51.7237 20.1161C52.3756 19.1355 52.7406 18 52.8188 16.7097L54.4615 18.6839H45.0356V13.6129H58.0207C58.125 14.0258 58.2032 14.4645 58.2553 14.929C58.3075 15.3935 58.3335 15.8581 58.3335 16.3226C58.3335 18.129 57.9815 19.7806 57.2775 21.2774C56.5996 22.7484 55.6609 24.0258 54.4615 25.1097C53.2882 26.1677 51.9323 26.9806 50.3939 27.5484C48.8555 28.1161 47.2129 28.4 45.4659 28.4Z" fill="white"/>
<path d="M50.7268 50C50.2053 50 49.9445 49.7849 49.9445 49.3548C49.9445 49.1828 50.0097 48.9462 50.1401 48.6452C50.6616 47.5269 51.4004 45.8495 52.3564 43.6129C53.3125 41.4194 54.3772 38.8817 55.5505 36C56.6804 33.1613 57.832 30.2366 59.0054 27.2258C60.0483 24.5591 61.0479 21.957 62.0039 19.4194C63.0034 16.8817 63.8291 14.6022 64.481 12.5806C65.1328 10.5161 65.4588 8.92473 65.4588 7.80645C65.4588 7.46237 65.6978 7.26882 66.1758 7.22581C66.6538 7.13979 67.1101 7.09677 67.5447 7.09677C68.9788 7.09677 69.6958 7.56989 69.6958 8.51613C69.6958 9.29032 69.2613 10.3011 68.3921 11.5484C67.6099 12.7957 66.9363 14.086 66.3714 15.4194C65.8064 16.7097 65.2415 18.043 64.6765 19.4194C65.7195 18.043 66.6973 16.6882 67.6099 15.3548C68.5225 14.0215 69.5872 12.8817 70.804 11.9355C71.7601 11.2043 72.6944 10.6237 73.607 10.1935C74.563 9.72043 75.5843 9.48387 76.6707 9.48387C77.8006 9.48387 78.9305 9.76344 80.0604 10.3226C81.1903 10.8387 81.8421 11.6774 82.016 12.8387C82.0594 12.9677 82.0811 13.1183 82.0811 13.2903C82.0811 13.4194 82.0811 13.5484 82.0811 13.6774C82.0811 15.1828 81.6248 16.6667 80.7122 18.129C79.8431 19.5484 78.8001 20.8172 77.5833 21.9355C76.3665 23.0538 75.2366 23.957 74.1937 24.6452C73.3245 25.1613 72.2598 25.7204 70.9996 26.3226C69.7828 26.9247 68.479 27.4409 67.0884 27.871C65.7412 28.3011 64.4375 28.5161 63.1773 28.5161C62.395 28.5161 61.7432 28.4301 61.2217 28.2581C60.6567 29.5484 60.0049 31.2043 59.2661 33.2258C58.5273 35.2903 57.832 37.3118 57.1802 39.2903C56.876 40.1505 56.7673 40.8387 56.8542 41.3548C56.9412 41.914 56.8325 42.6021 56.5283 43.4194C56.2676 44.2796 55.9851 45.0968 55.6809 45.871C55.3767 46.6882 55.029 47.4624 54.6379 48.1935C54.551 48.3656 54.2903 48.6021 53.8557 48.9032C53.3777 49.2043 52.8562 49.4624 52.2912 49.6774C51.6828 49.8925 51.1613 50 50.7268 50ZM61.7432 27.2258C63.1338 27.2258 64.5896 26.9032 66.1106 26.2581C67.6316 25.6129 69.1309 24.7527 70.6084 23.6774C72.086 22.6021 73.4114 21.4409 74.5848 20.1935C75.8016 18.9032 76.7794 17.6559 77.5181 16.4516C78.3873 15.0753 78.8219 13.8065 78.8219 12.6452C78.8219 11.3118 78.2352 10.6452 77.0618 10.6452C76.7576 10.6452 76.3883 10.7097 75.9537 10.8387C75.5191 10.9247 75.0193 11.1183 74.4544 11.4194C72.1512 12.6237 70.2608 14.043 68.7832 15.6774C67.3057 17.2688 66.0454 19.0323 65.0025 20.9677C63.9595 22.9032 62.8731 24.9892 61.7432 27.2258Z" fill="white"/>
<path d="M96.0401 5.48387C95.4751 5.48387 94.8885 5.44086 94.2801 5.35484C93.6717 5.22581 93.3675 4.8172 93.3675 4.12903C93.3675 4 93.6499 3.69893 94.2149 3.22581C94.8233 2.75269 95.4317 2.27957 96.0401 1.80645C96.6919 1.29032 97.083 0.989247 97.2134 0.903226C97.9522 0.301075 98.4085 0 98.5823 0C98.7996 0 98.7996 0.27957 98.5823 0.83871C98.365 1.39785 98.2564 1.89247 98.2564 2.32258C98.2564 2.53763 98.126 2.90323 97.8653 3.41935C97.6045 3.93548 97.3003 4.4086 96.9527 4.83871C96.605 5.26882 96.3008 5.48387 96.0401 5.48387ZM88.9348 28.5806C88.1526 28.5806 87.4355 28.4086 86.7837 28.0645C86.1753 27.7204 85.719 27.0753 85.4148 26.129C85.3713 26 85.3279 25.871 85.2844 25.7419C85.2844 25.6129 85.2844 25.4624 85.2844 25.2903C85.2844 24.4301 85.48 23.3548 85.8711 22.0645C86.2622 20.7742 86.7402 19.5269 87.3052 18.3226C87.0444 18.6667 86.7402 19.0968 86.3926 19.6129C86.0449 20.086 85.5452 20.7097 84.8933 21.4839C84.7195 21.6559 84.5239 21.7419 84.3066 21.7419C84.0024 21.7419 83.8503 21.5699 83.8503 21.2258C83.8503 20.9677 83.9372 20.7527 84.1111 20.5806C85.241 19.1613 86.2405 17.8925 87.1096 16.7742C88.0222 15.6559 88.6958 14.7097 89.1304 13.9355C89.1304 13.8925 89.1087 13.871 89.0652 13.871C89.0652 13.828 89.0652 13.7849 89.0652 13.7419C89.0652 13.6129 89.1304 13.4194 89.2607 13.1613C89.6084 12.129 89.9561 11.2688 90.3037 10.5806C90.6948 9.84946 91.1077 9.44086 91.5423 9.35484C91.6292 9.35484 91.7161 9.35484 91.803 9.35484C91.8899 9.31183 91.9768 9.29032 92.0637 9.29032C92.5418 9.29032 92.9763 9.39785 93.3675 9.6129C93.7586 9.82796 93.9541 10.1505 93.9541 10.5806C93.9541 10.9677 93.802 11.4409 93.4978 12C93.2371 12.5591 92.8894 13.2473 92.4548 14.0645C91.4988 16.043 90.6297 17.8495 89.8474 19.4839C89.1087 21.0753 88.6958 22.3871 88.6089 23.4194C88.5654 23.5914 88.5437 23.7634 88.5437 23.9355C88.5437 24.0645 88.5437 24.2151 88.5437 24.3871C88.5437 26.1075 89.1087 26.9677 90.2385 26.9677C90.9339 26.9677 91.8247 26.6021 92.9112 25.871C93.9976 25.0968 95.1057 24.172 96.2356 23.0968C97.3655 21.9785 98.3868 20.9247 99.2994 19.9355C100.255 18.9032 100.907 18.129 101.255 17.6129C101.385 17.4839 101.516 17.4194 101.646 17.4194C101.82 17.4194 101.95 17.4839 102.037 17.6129C102.168 17.7419 102.189 17.914 102.102 18.129C101.711 18.8602 101.038 19.7849 100.082 20.9032C99.169 21.9785 98.126 23.0753 96.9527 24.1935C95.8228 25.2688 94.7146 26.1935 93.6282 26.9677C93.0633 27.3979 92.3462 27.7634 91.4771 28.0645C90.6514 28.4086 89.804 28.5806 88.9348 28.5806Z" fill="white"/>
<path d="M106.378 28.9032C104.422 28.9032 102.727 28.4516 101.293 27.5484C99.859 26.6452 99.142 25.2688 99.142 23.4194C99.142 22.4301 99.4462 21.2258 100.055 19.8065C100.489 18.8172 101.293 17.6774 102.466 16.3871C103.64 15.0968 105.009 13.8495 106.573 12.6452C108.138 11.3979 109.724 10.3871 111.332 9.6129C112.94 8.7957 114.395 8.3871 115.699 8.3871C116.177 8.3871 116.612 8.45161 117.003 8.58065C117.742 8.83871 118.241 9.24731 118.502 9.80645C118.806 10.3656 118.958 10.9462 118.958 11.5484C118.958 12.1075 118.872 12.6452 118.698 13.1613C118.524 13.6774 118.307 14.129 118.046 14.5161C117.264 15.6774 116.134 16.7097 114.656 17.6129C113.222 18.5161 111.745 19.2258 110.224 19.7419C108.746 20.2581 107.529 20.5591 106.573 20.6452H106.443C105.878 20.6452 105.595 20.4731 105.595 20.129C105.595 19.914 105.769 19.8065 106.117 19.8065C107.16 19.7204 108.464 19.2473 110.028 18.3871C111.636 17.4839 113.048 16.5591 114.265 15.6129C114.787 15.1828 115.395 14.5806 116.09 13.8065C116.829 13.0323 117.198 12.2796 117.198 11.5484C117.198 10.7742 116.829 10.3871 116.09 10.3871C115.699 10.3871 115.286 10.4731 114.852 10.6452C114.461 10.8172 114.135 10.9462 113.874 11.0323C112.614 11.6344 111.223 12.5806 109.702 13.871C108.181 15.1183 106.79 16.5376 105.53 18.129C104.313 19.6774 103.466 21.2473 102.988 22.8387C102.858 23.1828 102.771 23.5269 102.727 23.871C102.684 24.172 102.662 24.4731 102.662 24.7742C102.662 25.8065 102.988 26.5376 103.64 26.9677C104.335 27.3979 105.161 27.6129 106.117 27.6129C107.551 27.6129 109.029 27.3118 110.55 26.7097C112.071 26.0645 113.548 25.2473 114.982 24.2581C116.416 23.2688 117.72 22.2151 118.893 21.0968C120.11 19.9355 121.131 18.8172 121.957 17.7419C122.087 17.5699 122.24 17.4839 122.413 17.4839C122.587 17.4409 122.696 17.4624 122.739 17.5484C122.913 17.5914 123 17.7204 123 17.9355C123 18.1075 122.957 18.2796 122.87 18.4516C121.653 20.129 120.175 21.7634 118.437 23.3548C116.742 24.9462 114.852 26.2796 112.766 27.3548C110.723 28.3871 108.594 28.9032 106.378 28.9032Z" fill="white"/>
</svg>
