<svg width="40" height="40" viewBox="0 0 40 40" fill="none" xmlns="http://www.w3.org/2000/svg">
<g clip-path="url(#clip0_86_6161)">
<path d="M18.189 12.5604C19.906 13.7675 22.5844 12.9147 24.172 10.6559C25.7592 8.397 25.6539 5.58792 23.9372 4.38129C22.2195 3.175 19.5415 4.02748 17.9539 6.28623C16.3667 8.54516 16.4719 11.3542 18.189 12.5604Z" fill="white"/>
<path d="M9.8853 14.6157C11.923 14.9766 13.9596 13.0969 14.4354 10.4159C14.9105 7.73555 13.6438 5.26981 11.6063 4.90789C9.56865 4.54754 7.53201 6.42767 7.05655 9.1084C6.58152 11.7887 7.84797 14.2543 9.8853 14.6157Z" fill="white"/>
<path d="M25.418 18.6833C26.8906 20.1789 29.6784 19.8201 31.6452 17.8831C33.6123 15.9445 34.0127 13.1626 32.5398 11.6669C31.0671 10.1723 28.2785 10.5314 26.312 12.4685C24.3451 14.4067 23.9452 17.1886 25.418 18.6833Z" fill="white"/>
<path d="M34.0484 23.9158C33.3563 21.9658 30.716 21.122 28.1504 22.0317C25.584 22.9424 24.0653 25.2609 24.757 27.2113C25.4488 29.1611 28.0892 30.0052 30.6551 29.0949C33.2206 28.1845 34.7398 25.8662 34.0484 23.9158Z" fill="white"/>
<path d="M22.3297 21.1085C22.5144 19.5551 21.963 17.9455 20.683 16.8611C19.4032 15.7773 17.7246 15.4985 16.2232 15.9358C14.5635 16.4196 13.3471 17.3067 11.9851 17.4719C10.6232 17.6371 7.57459 15.2413 4.38756 18.56C2.13662 20.904 2.59516 24.7526 5.07482 26.8526C6.95954 28.4488 8.69757 28.7926 9.79275 29.7198C10.8877 30.6468 11.5129 32.3049 13.3975 33.9009C15.877 36.001 19.7484 35.8202 21.69 33.214C24.439 29.5243 21.5737 26.9115 21.5123 25.5409C21.4512 24.1706 22.1261 22.8247 22.3297 21.1085Z" fill="white"/>
</g>
<defs>
<clipPath id="clip0_86_6161">
<rect width="32" height="32" fill="white" transform="translate(8.28223) rotate(15)"/>
</clipPath>
</defs>
</svg>
