<svg width="30" height="30" viewBox="0 0 30 30" fill="none" xmlns="http://www.w3.org/2000/svg">
<path fill-rule="evenodd" clip-rule="evenodd" d="M7.41426 20.859C7.77208 20.6504 8.2313 20.7713 8.43996 21.1291C9.26682 22.5471 10.5309 23.6193 12.0898 24.3151C12.468 24.4839 12.6378 24.9274 12.469 25.3057C12.3002 25.6839 11.8567 25.8537 11.4784 25.6849C9.66693 24.8764 8.14713 23.6046 7.14418 21.8847C6.93552 21.5269 7.05644 21.0677 7.41426 20.859Z" fill="#A4A4A4"/>
<path fill-rule="evenodd" clip-rule="evenodd" d="M21.9062 6.92194C20.8923 5.88646 19.4464 5.50452 18.0308 5.9073C17.6324 6.02066 17.2176 5.78959 17.1042 5.39119C16.9908 4.99279 17.2219 4.57792 17.6203 4.46456C19.5585 3.91307 21.575 4.43959 22.978 5.8725C23.2678 6.16846 23.2628 6.64331 22.9668 6.9331C22.6709 7.2229 22.196 7.2179 21.9062 6.92194Z" fill="#A4A4A4"/>
<path fill-rule="evenodd" clip-rule="evenodd" d="M14.1906 6.30839C13.9766 5.94131 13.3527 5.7187 12.7191 6.08085C12.0877 6.44168 11.9767 7.07772 12.187 7.4384L14.7127 11.7695C14.9213 12.1273 14.8004 12.5866 14.4426 12.7952C14.0848 13.0039 13.6255 12.883 13.4169 12.5251L10.0493 6.75032C9.83528 6.38324 9.21147 6.16063 8.5778 6.52278C7.94644 6.88361 7.8354 7.51965 8.04573 7.88033L11.8342 14.377C12.0429 14.7348 11.922 15.1941 11.5641 15.4027C11.2063 15.6114 10.7471 15.4905 10.5384 15.1326L8.85467 12.2452C8.64061 11.8781 8.0168 11.6555 7.38313 12.0177C6.75177 12.3785 6.64073 13.0145 6.85106 13.3752L10.6395 19.8719C12.2485 22.631 16.2188 23.5264 19.5858 21.6021C22.9505 19.6792 24.1465 15.8377 22.5413 13.085L20.0156 8.75387C19.8016 8.38679 19.1778 8.16418 18.5441 8.52633C17.9128 8.88716 17.8017 9.5232 18.012 9.88389L19.6958 12.7713C19.7966 12.9441 19.8241 13.15 19.7724 13.3432C19.7206 13.5365 19.5938 13.701 19.4201 13.8003C17.8776 14.6818 17.4049 16.3863 18.0802 17.5443C18.2889 17.9022 18.1679 18.3614 17.8101 18.57C17.4523 18.7787 16.9931 18.6578 16.7844 18.3C15.8717 16.7348 16.2405 14.8501 17.4194 13.5181C17.749 13.1457 17.8618 12.604 17.6113 12.1744L14.1906 6.30839Z" fill="#7F7F7F"/>
</svg>
