<svg width="30" height="30" viewBox="0 0 30 30" fill="none" xmlns="http://www.w3.org/2000/svg">
<path fill-rule="evenodd" clip-rule="evenodd" d="M5.5192 10.8227C5 11.7713 5 12.9155 5 15.2039V16.725C5 20.6258 5 22.5763 6.17157 23.7881C7.34315 25 9.22876 25 13 25H17C20.7712 25 22.6569 25 23.8284 23.7881C25 22.5763 25 20.6258 25 16.725V15.2039C25 12.9155 25 11.7713 24.4808 10.8227C23.9616 9.87421 23.0131 9.28551 21.116 8.10812L19.116 6.86687C17.1106 5.62229 16.1079 5 15 5C13.8921 5 12.8894 5.62229 10.884 6.86687L8.88403 8.10813C6.98695 9.28551 6.0384 9.87421 5.5192 10.8227ZM12.4466 18.3975C12.1138 18.1508 11.6441 18.2206 11.3975 18.5534C11.1508 18.8862 11.2206 19.3559 11.5534 19.6025C12.5258 20.3233 13.715 20.75 15 20.75C16.285 20.75 17.4742 20.3233 18.4466 19.6025C18.7794 19.3559 18.8492 18.8862 18.6025 18.5534C18.3559 18.2206 17.8862 18.1508 17.5534 18.3975C16.825 18.9373 15.9459 19.25 15 19.25C14.0541 19.25 13.175 18.9373 12.4466 18.3975Z" fill="url(#paint0_linear_616_1468)"/>
<defs>
<linearGradient id="paint0_linear_616_1468" x1="5" y1="15" x2="25" y2="15" gradientUnits="userSpaceOnUse">
<stop stop-color="#6C22C1"/>
<stop offset="1" stop-color="#E52445"/>
</linearGradient>
</defs>
</svg>
