<svg width="30" height="30" viewBox="0 0 30 30" fill="none" xmlns="http://www.w3.org/2000/svg">
<path d="M24.9999 11.1623L24.9999 11.2349C24.9999 12.0956 24.9999 12.526 24.7927 12.8781C24.5855 13.2302 24.2093 13.4392 23.4569 13.8572L22.6636 14.298C23.2102 12.4498 23.3926 10.4641 23.4601 8.76597C23.4629 8.69316 23.4662 8.61945 23.4695 8.54497L23.4718 8.49279C24.1231 8.71896 24.4887 8.88758 24.7168 9.20408C25 9.59692 25 10.1187 24.9999 11.1623Z" fill="#7F7F7F"/>
<path d="M5 11.1623L5 11.2349C5.00003 12.0956 5.00004 12.526 5.20723 12.8781C5.41442 13.2302 5.79063 13.4392 6.54305 13.8572L7.33681 14.2982C6.79007 12.45 6.60767 10.4642 6.54025 8.76597C6.53736 8.69316 6.5341 8.61945 6.53081 8.54497L6.5285 8.49266C5.87701 8.7189 5.51126 8.88752 5.2831 9.20408C4.99996 9.59692 4.99997 10.1187 5 11.1623Z" fill="#7F7F7F"/>
<path fill-rule="evenodd" clip-rule="evenodd" d="M15.0002 5C16.7837 5 18.2531 5.15709 19.3771 5.34674C20.5159 5.53887 21.0852 5.63494 21.5609 6.22083C22.0367 6.80673 22.0115 7.43998 21.9612 8.70647C21.7886 13.0545 20.8503 18.4853 15.75 18.9657V22.5H17.1802C17.6569 22.5 18.0673 22.8365 18.1608 23.3039L18.35 24.25H21C21.4142 24.25 21.75 24.5858 21.75 25C21.75 25.4142 21.4142 25.75 21 25.75H9C8.58579 25.75 8.25 25.4142 8.25 25C8.25 24.5858 8.58579 24.25 9 24.25H11.65L11.8392 23.3039C11.9327 22.8365 12.3431 22.5 12.8198 22.5H14.25V18.9657C9.14996 18.4851 8.21169 13.0544 8.03907 8.70647C7.98879 7.43998 7.96365 6.80673 8.43937 6.22083C8.91508 5.63494 9.48445 5.53887 10.6232 5.34674C11.7472 5.15709 13.2166 5 15.0002 5ZM15.9524 9.19887L15.8541 9.02251C15.4741 8.34084 15.2841 8 15 8C14.7159 8 14.5259 8.34084 14.1459 9.02251L14.0476 9.19887C13.9397 9.39258 13.8857 9.48944 13.8015 9.55334C13.7173 9.61725 13.6125 9.64097 13.4028 9.68841L13.2119 9.73161C12.474 9.89857 12.105 9.98205 12.0172 10.2643C11.9294 10.5466 12.181 10.8407 12.684 11.429L12.8142 11.5812C12.9571 11.7483 13.0286 11.8319 13.0608 11.9353C13.0929 12.0387 13.0821 12.1502 13.0605 12.3733L13.0408 12.5763C12.9648 13.3612 12.9267 13.7536 13.1565 13.9281C13.3864 14.1025 13.7318 13.9435 14.4227 13.6254L14.6014 13.5431C14.7978 13.4527 14.8959 13.4075 15 13.4075C15.1041 13.4075 15.2022 13.4527 15.3986 13.5431L15.5773 13.6254C16.2682 13.9435 16.6136 14.1025 16.8435 13.9281C17.0733 13.7536 17.0352 13.3612 16.9592 12.5763L16.9395 12.3733C16.9179 12.1502 16.9071 12.0387 16.9392 11.9353C16.9714 11.8319 17.0429 11.7483 17.1858 11.5812L17.316 11.429C17.819 10.8407 18.0706 10.5466 17.9828 10.2643C17.895 9.98205 17.526 9.89857 16.7881 9.73161L16.5972 9.68841C16.3875 9.64097 16.2827 9.61725 16.1985 9.55334C16.1143 9.48944 16.0603 9.39258 15.9524 9.19887Z" fill="#7F7F7F"/>
</svg>
