<svg width="90" height="164" viewBox="0 0 90 164" fill="none" xmlns="http://www.w3.org/2000/svg">
<g opacity="0.3">
<g clip-path="url(#clip0_3_12186)">
<path d="M70.8198 71.5674C72.7907 72.289 75.1571 70.772 76.1061 68.1793C77.0545 65.5866 76.2258 62.9005 74.2552 62.1793C72.2839 61.4586 69.9177 62.9752 68.9688 65.5679C68.0204 68.1606 68.8491 70.8468 70.8198 71.5674Z" fill="#D4D4D4" fill-opacity="0.42"/>
<path d="M63.3306 75.7023C65.3923 75.5235 66.873 73.1808 66.6387 70.4679C66.4039 67.756 64.5421 65.7021 62.4804 65.8799C60.4189 66.0592 58.9383 68.4024 59.1729 71.1148C59.4077 73.8267 61.2692 75.8805 63.3306 75.7023Z" fill="#D4D4D4" fill-opacity="0.42"/>
<path d="M79.3866 75.6097C81.1961 76.6732 83.7961 75.6051 85.1944 73.225C86.5928 70.8434 86.2595 68.0527 84.4497 66.9892C82.6403 65.9266 80.0397 66.9952 78.6416 69.3753C77.2434 71.7565 77.5771 74.5472 79.3866 75.6097Z" fill="#D4D4D4" fill-opacity="0.42"/>
<path d="M89.0783 78.4321C87.9051 76.7277 85.1364 76.5959 82.8936 78.1387C80.6504 79.6826 79.7835 82.3151 80.9564 84.0201C82.1293 85.7244 84.8982 85.8563 87.141 84.3129C89.3835 82.7696 90.2509 80.1371 89.0783 78.4321Z" fill="#D4D4D4" fill-opacity="0.42"/>
<path d="M77.0316 78.7528C76.8078 77.2045 75.8587 75.7924 74.3416 75.0763C72.8249 74.3607 71.1313 74.5259 69.7943 75.3369C68.3164 76.2337 67.371 77.4054 66.0981 77.9175C64.8254 78.4296 61.2606 76.9044 59.0411 80.9349C57.4736 83.7816 58.9126 87.3804 61.8513 88.7671C64.0849 89.8211 65.8527 89.7034 67.1505 90.3154C68.4481 90.9275 69.4811 92.3673 71.7146 93.4212C74.6532 94.8079 78.3458 93.6313 79.5468 90.6114C81.2471 86.3359 77.8032 84.5537 77.3891 83.2457C76.9754 81.9379 77.279 80.4632 77.0316 78.7528Z" fill="#D4D4D4" fill-opacity="0.42"/>
</g>
<g clip-path="url(#clip1_3_12186)">
<path d="M34.8198 141.567C36.7907 142.289 39.1571 140.772 40.1061 138.179C41.0545 135.587 40.2258 132.9 38.2552 132.179C36.2839 131.459 33.9177 132.975 32.9688 135.568C32.0204 138.161 32.8491 140.847 34.8198 141.567Z" fill="#D4D4D4" fill-opacity="0.42"/>
<path d="M27.3306 145.702C29.3923 145.524 30.873 143.181 30.6387 140.468C30.4039 137.756 28.5421 135.702 26.4804 135.88C24.4189 136.059 22.9383 138.402 23.1729 141.115C23.4077 143.827 25.2692 145.881 27.3306 145.702Z" fill="#D4D4D4" fill-opacity="0.42"/>
<path d="M43.3866 145.61C45.1961 146.673 47.7961 145.605 49.1944 143.225C50.5928 140.843 50.2595 138.053 48.4497 136.989C46.6403 135.927 44.0397 136.995 42.6416 139.375C41.2434 141.756 41.5771 144.547 43.3866 145.61Z" fill="#D4D4D4" fill-opacity="0.42"/>
<path d="M53.0783 148.432C51.9051 146.728 49.1364 146.596 46.8936 148.139C44.6504 149.683 43.7835 152.315 44.9564 154.02C46.1293 155.724 48.8982 155.856 51.141 154.313C53.3835 152.77 54.2509 150.137 53.0783 148.432Z" fill="#D4D4D4" fill-opacity="0.42"/>
<path d="M41.0316 148.753C40.8078 147.204 39.8587 145.792 38.3416 145.076C36.8249 144.361 35.1313 144.526 33.7943 145.337C32.3164 146.234 31.371 147.405 30.0981 147.917C28.8254 148.43 25.2606 146.904 23.0411 150.935C21.4736 153.782 22.9126 157.38 25.8513 158.767C28.0849 159.821 29.8527 159.703 31.1505 160.315C32.4481 160.927 33.4811 162.367 35.7146 163.421C38.6532 164.808 42.3458 163.631 43.5468 160.611C45.2471 156.336 41.8032 154.554 41.3891 153.246C40.9754 151.938 41.279 150.463 41.0316 148.753Z" fill="#D4D4D4" fill-opacity="0.42"/>
</g>
<g clip-path="url(#clip2_3_12186)">
<path d="M12.8198 89.5674C14.7907 90.289 17.1571 88.772 18.1061 86.1793C19.0545 83.5866 18.2258 80.9005 16.2552 80.1793C14.2839 79.4586 11.9177 80.9752 10.9688 83.5679C10.0204 86.1606 10.8491 88.8468 12.8198 89.5674Z" fill="#D4D4D4" fill-opacity="0.42"/>
<path d="M5.33062 93.7023C7.39231 93.5235 8.873 91.1808 8.63868 88.4679C8.40387 85.756 6.54212 83.7021 4.48043 83.8799C2.41893 84.0592 0.938309 86.4024 1.17287 89.1148C1.40775 91.8267 3.26918 93.8805 5.33062 93.7023Z" fill="#D4D4D4" fill-opacity="0.42"/>
<path d="M21.3866 93.6097C23.1961 94.6732 25.7961 93.6051 27.1944 91.225C28.5928 88.8434 28.2595 86.0527 26.4497 84.9892C24.6403 83.9266 22.0397 84.9952 20.6416 87.3753C19.2434 89.7565 19.5771 92.5472 21.3866 93.6097Z" fill="#D4D4D4" fill-opacity="0.42"/>
<path d="M31.0783 96.4321C29.9051 94.7277 27.1364 94.5959 24.8936 96.1387C22.6504 97.6826 21.7835 100.315 22.9564 102.02C24.1293 103.724 26.8982 103.856 29.141 102.313C31.3835 100.77 32.2509 98.1371 31.0783 96.4321Z" fill="#D4D4D4" fill-opacity="0.42"/>
<path d="M19.0316 96.7528C18.8078 95.2045 17.8587 93.7924 16.3416 93.0763C14.8249 92.3607 13.1313 92.5259 11.7943 93.3369C10.3164 94.2337 9.371 95.4054 8.09813 95.9175C6.82544 96.4296 3.26063 94.9044 1.04113 98.9349C-0.526436 101.782 0.912564 105.38 3.85125 106.767C6.08488 107.821 7.85269 107.703 9.1505 108.315C10.4481 108.927 11.4811 110.367 13.7146 111.421C16.6532 112.808 20.3458 111.631 21.5468 108.611C23.2471 104.336 19.8032 102.554 19.3891 101.246C18.9754 99.9379 19.279 98.4632 19.0316 96.7528Z" fill="#D4D4D4" fill-opacity="0.42"/>
</g>
<g clip-path="url(#clip3_3_12186)">
<path d="M61.8198 9.5674C63.7907 10.289 66.1571 8.77202 67.1061 6.17934C68.0545 3.58659 67.2258 0.900462 65.2552 0.179274C63.2839 -0.541351 60.9177 0.975212 59.9688 3.5679C59.0204 6.16065 59.8491 8.84677 61.8198 9.5674Z" fill="#D4D4D4" fill-opacity="0.42"/>
<path d="M54.3306 13.7023C56.3923 13.5235 57.873 11.1808 57.6387 8.46792C57.4039 5.75599 55.5421 3.70211 53.4804 3.87986C51.4189 4.05917 49.9383 6.40236 50.1729 9.1148C50.4077 11.8267 52.2692 13.8805 54.3306 13.7023Z" fill="#D4D4D4" fill-opacity="0.42"/>
<path d="M70.3866 13.6097C72.1961 14.6732 74.7961 13.6051 76.1944 11.225C77.5928 8.84341 77.2595 6.05266 75.4497 4.98916C73.6403 3.9266 71.0397 4.99523 69.6416 7.37529C68.2434 9.75648 68.5771 12.5472 70.3866 13.6097Z" fill="#D4D4D4" fill-opacity="0.42"/>
<path d="M80.0783 16.4321C78.9051 14.7277 76.1364 14.5959 73.8936 16.1387C71.6504 17.6826 70.7835 20.3151 71.9564 22.0201C73.1293 23.7244 75.8982 23.8563 78.141 22.3129C80.3835 20.7696 81.2509 18.1371 80.0783 16.4321Z" fill="#D4D4D4" fill-opacity="0.42"/>
<path d="M68.0316 16.7528C67.8078 15.2045 66.8587 13.7924 65.3416 13.0763C63.8249 12.3607 62.1313 12.5259 60.7943 13.3369C59.3164 14.2337 58.371 15.4054 57.0981 15.9175C55.8254 16.4296 52.2606 14.9044 50.0411 18.9349C48.4736 21.7816 49.9126 25.3804 52.8513 26.7671C55.0849 27.8211 56.8527 27.7034 58.1505 28.3154C59.4481 28.9275 60.4811 30.3673 62.7146 31.4212C65.6532 32.8079 69.3458 31.6313 70.5468 28.6114C72.2471 24.3359 68.8032 22.5537 68.3891 21.2457C67.9754 19.9379 68.279 18.4632 68.0316 16.7528Z" fill="#D4D4D4" fill-opacity="0.42"/>
</g>
</g>
<defs>
<clipPath id="clip0_3_12186">
<rect width="32" height="32" fill="white" transform="translate(58 62)"/>
</clipPath>
<clipPath id="clip1_3_12186">
<rect width="32" height="32" fill="white" transform="translate(22 132)"/>
</clipPath>
<clipPath id="clip2_3_12186">
<rect width="32" height="32" fill="white" transform="translate(0 80)"/>
</clipPath>
<clipPath id="clip3_3_12186">
<rect width="32" height="32" fill="white" transform="translate(49)"/>
</clipPath>
</defs>
</svg>
