<svg width="30" height="30" viewBox="0 0 30 30" fill="none" xmlns="http://www.w3.org/2000/svg">
<path fill-rule="evenodd" clip-rule="evenodd" d="M24.1009 11.0035C24.0442 11 23.9825 11 23.9186 11L23.9026 11H21.3941C19.3264 11 17.5572 12.6276 17.5572 14.75C17.5572 16.8724 19.3264 18.5 21.3941 18.5H23.9026L23.9186 18.5C23.9825 18.5 24.0442 18.5001 24.1009 18.4965C24.9408 18.4434 25.6835 17.7862 25.746 16.8682C25.7501 16.808 25.75 16.7431 25.75 16.683L25.75 16.6667V12.8333L25.75 12.817C25.75 12.7569 25.7501 12.692 25.746 12.6318C25.6835 11.7138 24.9408 11.0566 24.1009 11.0035ZM21.1717 15.75C21.704 15.75 22.1355 15.3023 22.1355 14.75C22.1355 14.1977 21.704 13.75 21.1717 13.75C20.6394 13.75 20.2078 14.1977 20.2078 14.75C20.2078 15.3023 20.6394 15.75 21.1717 15.75Z" fill="#7F7F7F"/>
<path fill-rule="evenodd" clip-rule="evenodd" d="M23.9179 20C24.067 19.9961 24.1799 20.1342 24.1394 20.2778C23.9387 20.9902 23.62 21.5975 23.1088 22.1088C22.3604 22.8571 21.4114 23.1892 20.239 23.3469C19.0998 23.5 17.6442 23.5 15.8064 23.5H13.6936C11.8558 23.5 10.4002 23.5 9.26098 23.3469C8.08856 23.1892 7.13961 22.8571 6.39124 22.1088C5.64288 21.3604 5.31076 20.4114 5.15314 19.239C4.99997 18.0998 4.99998 16.6442 5 14.8064V14.6936C4.99998 12.8558 4.99997 11.4002 5.15314 10.261C5.31076 9.08856 5.64288 8.13961 6.39124 7.39124C7.13961 6.64288 8.08856 6.31076 9.26098 6.15314C10.4002 5.99997 11.8558 5.99998 13.6936 6L15.8064 6C17.6442 5.99998 19.0998 5.99997 20.239 6.15314C21.4114 6.31076 22.3604 6.64288 23.1088 7.39124C23.62 7.90252 23.9386 8.50974 24.1394 9.22218C24.1799 9.36575 24.067 9.50387 23.9179 9.5L21.394 9.50001C18.5574 9.50001 16.0571 11.7409 16.0571 14.75C16.0571 17.7591 18.5574 20 21.394 20L23.9179 20ZM10 18.5C9.58579 18.5 9.25 18.1642 9.25 17.75V11.75C9.25 11.3358 9.58579 11 10 11C10.4142 11 10.75 11.3358 10.75 11.75V17.75C10.75 18.1642 10.4142 18.5 10 18.5Z" fill="#7F7F7F"/>
</svg>
